[ConversionWorker] Logging FFmpeg output to: ffmpeg_logs\ffmpeg_conversion_高冷14_wav_20250525_174015.log\n[ConversionWorker] Getting duration with command: ffprobe -v error -show_entries format=duration -of default=noprint_wrappers=1:nokey=1 Z:\Story\高冷\高冷14.wav\n[ConversionWorker] Duration for 高冷14.wav: 3594774 ms\n[ConversionWorker] Starting FFmpeg for 高冷14.wav: ffmpeg -i Z:\Story\高冷\高冷14.wav -b:a 128k -vn -y -loglevel error -stats -progress pipe:1 Z:\Story\高冷\高冷14.mp3\n[ConversionWorker] FFmpeg process started. PID: 26836\n[STDOUT RAW] bitrate= 123.7kbits/s\n[STDOUT RAW] total_size=76460\n[STDOUT RAW] out_time_us=4945958\n[STDOUT RAW] out_time_ms=4945958\n[STDOUT RAW] out_time=00:00:04.945958\n[STDOUT RAW] dup_frames=0\n[STDOUT RAW] drop_frames=0\n[STDOUT RAW] speed=9.42x\n[STDOUT RAW] progress=continue\n[STDERR RAW] size=      75KiB time=00:00:04.94 bitrate= 123.7kbits/s speed=9.42x\n[STDOUT RAW] bitrate= 125.8kbits/s\n[STDOUT RAW] total_size=150956\n[STDOUT RAW] out_time_us=9601958\n[STDOUT RAW] out_time_ms=9601958\n[STDOUT RAW] out_time=00:00:09.601958\n[STDOUT RAW] dup_frames=0\n[STDOUT RAW] drop_frames=0\n[STDOUT RAW] speed=9.29x\n[STDOUT RAW] progress=continue\n[STDERR RAW] size=     147KiB time=00:00:09.60 bitrate= 125.8kbits/s speed=9.29x\n[STDOUT RAW] bitrate= 126.5kbits/s\n[STDOUT RAW] total_size=230060\n[STDOUT RAW] out_time_us=14545958\n[STDOUT RAW] out_time_ms=14545958\n[STDOUT RAW] out_time=00:00:14.545958\n[STDOUT RAW] dup_frames=0\n[STDOUT RAW] drop_frames=0\n[STDOUT RAW] speed=9.35x\n[STDOUT RAW] progress=continue\n[STDERR RAW] size=     225KiB time=00:00:14.54 bitrate= 126.5kbits/s speed=9.35x\n[STDOUT RAW] bitrate= 109.7kbits/s\n[STDOUT RAW] total_size=1048576\n[STDOUT RAW] out_time_us=76489958\n[STDOUT RAW] out_time_ms=76489958\n[STDOUT RAW] out_time=00:01:16.489958\n[STDOUT RAW] dup_frames=0\n[STDOUT RAW] drop_frames=0\n[STDOUT RAW] speed=  37x\n[STDOUT RAW] progress=continue\n[STDERR RAW] size=    1024KiB time=00:01:16.48 bitrate= 109.7kbits/s speed=  37x\n[STDOUT RAW] bitrate= 117.8kbits/s\n[STDOUT RAW] total_size=2621440\n[STDOUT RAW] out_time_us=178033958\n[STDOUT RAW] out_time_ms=178033958\n[STDOUT RAW] out_time=00:02:58.033958\n[STDOUT RAW] dup_frames=0\n[STDOUT RAW] drop_frames=0\n[STDOUT RAW] speed=68.9x\n[STDOUT RAW] progress=continue\n[STDERR RAW] size=    2560KiB time=00:02:58.03 bitrate= 117.8kbits/s speed=68.9x\n[STDOUT RAW] bitrate= 121.8kbits/s\n[STDOUT RAW] total_size=4194304\n[STDOUT RAW] out_time_us=275569958\n[STDOUT RAW] out_time_ms=275569958\n[STDOUT RAW] out_time=00:04:35.569958\n[STDOUT RAW] dup_frames=0\n[STDOUT RAW] drop_frames=0\n[STDOUT RAW] speed=  89x\n[STDOUT RAW] progress=continue\n[STDERR RAW] size=    4096KiB time=00:04:35.56 bitrate= 121.8kbits/s speed=  89x\n[STDOUT RAW] bitrate= 125.1kbits/s\n[STDOUT RAW] total_size=5767168\n[STDOUT RAW] out_time_us=368785958\n[STDOUT RAW] out_time_ms=368785958\n[STDOUT RAW] out_time=00:06:08.785958\n[STDOUT RAW] dup_frames=0\n[STDOUT RAW] drop_frames=0\n[STDOUT RAW] speed= 102x\n[STDOUT RAW] progress=continue\n[STDERR RAW] size=    5632KiB time=00:06:08.78 bitrate= 125.1kbits/s speed= 102x\n[STDOUT RAW] bitrate= 123.7kbits/s\n[STDOUT RAW] total_size=7077888\n[STDOUT RAW] out_time_us=457849958\n[STDOUT RAW] out_time_ms=457849958\n[STDOUT RAW] out_time=00:07:37.849958\n[STDOUT RAW] dup_frames=0\n[STDOUT RAW] drop_frames=0\n[STDOUT RAW] speed= 111x\n[STDOUT RAW] progress=continue\n[STDERR RAW] size=    6912KiB time=00:07:37.84 bitrate= 123.7kbits/s speed= 111x\n[STDOUT RAW] bitrate= 124.2kbits/s\n[STDOUT RAW] total_size=8650752\n[STDOUT RAW] out_time_us=557185958\n[STDOUT RAW] out_time_ms=557185958\n[STDOUT RAW] out_time=00:09:17.185958\n[STDOUT RAW] dup_frames=0\n[STDOUT RAW] drop_frames=0\n[STDOUT RAW] speed= 120x\n[STDOUT RAW] progress=continue\n[STDERR RAW] size=    8448KiB time=00:09:17.18 bitrate= 124.2kbits/s speed= 120x\n[STDOUT RAW] bitrate= 126.9kbits/s\n[STDOUT RAW] total_size=10485760\n[STDOUT RAW] out_time_us=661105958\n[STDOUT RAW] out_time_ms=661105958\n[STDOUT RAW] out_time=00:11:01.105958\n[STDOUT RAW] dup_frames=0\n[STDOUT RAW] drop_frames=0\n[STDOUT RAW] speed= 128x\n[STDOUT RAW] progress=continue\n[STDERR RAW] size=   10240KiB time=00:11:01.10 bitrate= 126.9kbits/s speed= 128x\n[STDOUT RAW] bitrate= 126.2kbits/s\n[STDOUT RAW] total_size=12058624\n[STDOUT RAW] out_time_us=764377958\n[STDOUT RAW] out_time_ms=764377958\n[STDOUT RAW] out_time=00:12:44.377958\n[STDOUT RAW] dup_frames=0\n[STDOUT RAW] drop_frames=0\n[STDOUT RAW] speed= 134x\n[STDOUT RAW] progress=continue\n[STDERR RAW] size=   11776KiB time=00:12:44.37 bitrate= 126.2kbits/s speed= 134x\n[STDOUT RAW] bitrate= 125.6kbits/s\n[STDOUT RAW] total_size=13631488\n[STDOUT RAW] out_time_us=868489958\n[STDOUT RAW] out_time_ms=868489958\n[STDOUT RAW] out_time=00:14:28.489958\n[STDOUT RAW] dup_frames=0\n[STDOUT RAW] drop_frames=0\n[STDOUT RAW] speed= 140x\n[STDOUT RAW] progress=continue\n[STDERR RAW] size=   13312KiB time=00:14:28.48 bitrate= 125.6kbits/s speed= 140x\n[STDOUT RAW] bitrate= 127.4kbits/s\n[STDOUT RAW] total_size=15466496\n[STDOUT RAW] out_time_us=971329958\n[STDOUT RAW] out_time_ms=971329958\n[STDOUT RAW] out_time=00:16:11.329958\n[STDOUT RAW] dup_frames=0\n[STDOUT RAW] drop_frames=0\n[STDOUT RAW] speed= 145x\n[STDOUT RAW] progress=continue\n[STDERR RAW] size=   15104KiB time=00:16:11.32 bitrate= 127.4kbits/s speed= 145x\n[STDOUT RAW] bitrate= 126.9kbits/s\n[STDOUT RAW] total_size=16777216\n[STDOUT RAW] out_time_us=1057993958\n[STDOUT RAW] out_time_ms=1057993958\n[STDOUT RAW] out_time=00:17:37.993958\n[STDOUT RAW] dup_frames=0\n[STDOUT RAW] drop_frames=0\n[STDOUT RAW] speed= 146x\n[STDOUT RAW] progress=continue\n[STDERR RAW] size=   16384KiB time=00:17:37.99 bitrate= 126.9kbits/s speed= 146x\n[STDOUT RAW] bitrate= 127.7kbits/s\n[STDOUT RAW] total_size=18350080\n[STDOUT RAW] out_time_us=1149865958\n[STDOUT RAW] out_time_ms=1149865958\n[STDOUT RAW] out_time=00:19:09.865958\n[STDOUT RAW] dup_frames=0\n[STDOUT RAW] drop_frames=0\n[STDOUT RAW] speed= 148x\n[STDOUT RAW] progress=continue\n[STDERR RAW] size=   17920KiB time=00:19:09.86 bitrate= 127.7kbits/s speed= 148x\n[STDOUT RAW] bitrate= 127.7kbits/s\n[STDOUT RAW] total_size=19922944\n[STDOUT RAW] out_time_us=1247809958\n[STDOUT RAW] out_time_ms=1247809958\n[STDOUT RAW] out_time=00:20:47.809958\n[STDOUT RAW] dup_frames=0\n[STDOUT RAW] drop_frames=0\n[STDOUT RAW] speed= 151x\n[STDOUT RAW] progress=continue\n[STDERR RAW] size=   19456KiB time=00:20:47.80 bitrate= 127.7kbits/s speed= 151x\n[STDOUT RAW] bitrate= 127.2kbits/s\n[STDOUT RAW] total_size=21495808\n[STDOUT RAW] out_time_us=1351633958\n[STDOUT RAW] out_time_ms=1351633958\n[STDOUT RAW] out_time=00:22:31.633958\n[STDOUT RAW] dup_frames=0\n[STDOUT RAW] drop_frames=0\n[STDOUT RAW] speed= 154x\n[STDOUT RAW] progress=continue\n[STDERR RAW] size=   20992KiB time=00:22:31.63 bitrate= 127.2kbits/s speed= 154x\n[STDOUT RAW] bitrate= 126.9kbits/s\n[STDOUT RAW] total_size=23068672\n[STDOUT RAW] out_time_us=1454329958\n[STDOUT RAW] out_time_ms=1454329958\n[STDOUT RAW] out_time=00:24:14.329958\n[STDOUT RAW] dup_frames=0\n[STDOUT RAW] drop_frames=0\n[STDOUT RAW] speed= 157x\n[STDOUT RAW] progress=continue\n[STDERR RAW] size=   22528KiB time=00:24:14.32 bitrate= 126.9kbits/s speed= 157x\n[STDOUT RAW] bitrate= 126.6kbits/s\n[STDOUT RAW] total_size=24641536\n[STDOUT RAW] out_time_us=1556617958\n[STDOUT RAW] out_time_ms=1556617958\n[STDOUT RAW] out_time=00:25:56.617958\n[STDOUT RAW] dup_frames=0\n[STDOUT RAW] drop_frames=0\n[STDOUT RAW] speed= 159x\n[STDOUT RAW] progress=continue\n[STDERR RAW] size=   24064KiB time=00:25:56.61 bitrate= 126.6kbits/s speed= 159x\n[STDOUT RAW] bitrate= 127.5kbits/s\n[STDOUT RAW] total_size=26476544\n[STDOUT RAW] out_time_us=1660777958\n[STDOUT RAW] out_time_ms=1660777958\n[STDOUT RAW] out_time=00:27:40.777958\n[STDOUT RAW] dup_frames=0\n[STDOUT RAW] drop_frames=0\n[STDOUT RAW] speed= 161x\n[STDOUT RAW] progress=continue\n[STDERR RAW] size=   25856KiB time=00:27:40.77 bitrate= 127.5kbits/s speed= 161x\n[STDOUT RAW] bitrate= 127.0kbits/s\n[STDOUT RAW] total_size=28049408\n[STDOUT RAW] out_time_us=1767457958\n[STDOUT RAW] out_time_ms=1767457958\n[STDOUT RAW] out_time=00:29:27.457958\n[STDOUT RAW] dup_frames=0\n[STDOUT RAW] drop_frames=0\n[STDOUT RAW] speed= 163x\n[STDOUT RAW] progress=continue\n[STDERR RAW] size=   27392KiB time=00:29:27.45 bitrate= 127.0kbits/s speed= 163x\n[STDOUT RAW] bitrate= 128.0kbits/s\n[STDOUT RAW] total_size=29884416\n[STDOUT RAW] out_time_us=1868497958\n[STDOUT RAW] out_time_ms=1868497958\n[STDOUT RAW] out_time=00:31:08.497958\n[STDOUT RAW] dup_frames=0\n[STDOUT RAW] drop_frames=0\n[STDOUT RAW] speed= 165x\n[STDOUT RAW] progress=continue\n[STDERR RAW] size=   29184KiB time=00:31:08.49 bitrate= 128.0kbits/s speed= 165x\n[STDOUT RAW] bitrate= 127.2kbits/s\n[STDOUT RAW] total_size=31457280\n[STDOUT RAW] out_time_us=1978273958\n[STDOUT RAW] out_time_ms=1978273958\n[STDOUT RAW] out_time=00:32:58.273958\n[STDOUT RAW] dup_frames=0\n[STDOUT RAW] drop_frames=0\n[STDOUT RAW] speed= 167x\n[STDOUT RAW] progress=continue\n[STDOUT RAW] bitrate= 127.8kbits/s\n[STDOUT RAW] total_size=33292288\n[STDERR RAW] size=   30720KiB time=00:32:58.27 bitrate= 127.2kbits/s speed= 167x\n[STDOUT RAW] out_time_us=2084497958\n[STDOUT RAW] out_time_ms=2084497958\n[STDOUT RAW] out_time=00:34:44.497958\n[STDOUT RAW] dup_frames=0\n[STDOUT RAW] drop_frames=0\n[STDOUT RAW] speed= 168x\n[STDOUT RAW] progress=continue\n[STDERR RAW] size=   32512KiB time=00:34:44.49 bitrate= 127.8kbits/s speed= 168x\n[STDOUT RAW] bitrate= 127.1kbits/s\n[STDOUT RAW] total_size=34865152\n[STDOUT RAW] out_time_us=2194177958\n[STDOUT RAW] out_time_ms=2194177958\n[STDOUT RAW] out_time=00:36:34.177958\n[STDOUT RAW] dup_frames=0\n[STDOUT RAW] drop_frames=0\n[STDOUT RAW] speed= 170x\n[STDOUT RAW] progress=continue\n[STDERR RAW] size=   34048KiB time=00:36:34.17 bitrate= 127.1kbits/s speed= 170x\n[STDOUT RAW] bitrate= 127.7kbits/s\n[STDOUT RAW] total_size=36700160\n[STDOUT RAW] out_time_us=2299633958\n[STDOUT RAW] out_time_ms=2299633958\n[STDOUT RAW] out_time=00:38:19.633958\n[STDOUT RAW] dup_frames=0\n[STDOUT RAW] drop_frames=0\n[STDOUT RAW] speed= 171x\n[STDOUT RAW] progress=continue\n[STDERR RAW] size=   35840KiB time=00:38:19.63 bitrate= 127.7kbits/s speed= 171x\n[STDOUT RAW] bitrate= 127.8kbits/s\n[STDOUT RAW] total_size=38273024\n[STDOUT RAW] out_time_us=2395825958\n[STDOUT RAW] out_time_ms=2395825958\n[STDOUT RAW] out_time=00:39:55.825958\n[STDOUT RAW] dup_frames=0\n[STDOUT RAW] drop_frames=0\n[STDOUT RAW] speed= 172x\n[STDOUT RAW] progress=continue\n[STDOUT RAW] bitrate= 127.4kbits/s\n[STDOUT RAW] total_size=39845888\n[STDERR RAW] size=   37376KiB time=00:39:55.82 bitrate= 127.8kbits/s speed= 172x\n[STDOUT RAW] out_time_us=2501305958\n[STDOUT RAW] out_time_ms=2501305958\n[STDOUT RAW] out_time=00:41:41.305958\n[STDOUT RAW] dup_frames=0\n[STDOUT RAW] drop_frames=0\n[STDOUT RAW] speed= 173x\n[STDOUT RAW] progress=continue\n[STDERR RAW] size=   38912KiB time=00:41:41.30 bitrate= 127.4kbits/s speed= 173x\n[STDOUT RAW] bitrate= 127.2kbits/s\n[STDOUT RAW] total_size=41418752\n[STDOUT RAW] out_time_us=2605177958\n[STDOUT RAW] out_time_ms=2605177958\n[STDOUT RAW] out_time=00:43:25.177958\n[STDOUT RAW] dup_frames=0\n[STDOUT RAW] drop_frames=0\n[STDOUT RAW] speed= 174x\n[STDOUT RAW] progress=continue\n[STDERR RAW] size=   40448KiB time=00:43:25.17 bitrate= 127.2kbits/s speed= 174x\n[STDOUT RAW] bitrate= 127.8kbits/s\n[STDOUT RAW] total_size=43253760\n[STDOUT RAW] out_time_us=2706961958\n[STDOUT RAW] out_time_ms=2706961958\n[STDOUT RAW] out_time=00:45:06.961958\n[STDOUT RAW] dup_frames=0\n[STDOUT RAW] drop_frames=0\n[STDOUT RAW] speed= 175x\n[STDOUT RAW] progress=continue\n[STDERR RAW] size=   42240KiB time=00:45:06.96 bitrate= 127.8kbits/s speed= 175x\n[STDOUT RAW] bitrate= 127.5kbits/s\n[STDOUT RAW] total_size=44826624\n[STDOUT RAW] out_time_us=2811817958\n[STDOUT RAW] out_time_ms=2811817958\n[STDOUT RAW] out_time=00:46:51.817958\n[STDOUT RAW] dup_frames=0\n[STDOUT RAW] drop_frames=0\n[STDOUT RAW] speed= 176x\n[STDOUT RAW] progress=continue\n[STDERR RAW] size=   43776KiB time=00:46:51.81 bitrate= 127.5kbits/s speed= 176x\n[STDOUT RAW] bitrate= 127.7kbits/s\n[STDOUT RAW] total_size=46661632\n[STDOUT RAW] out_time_us=2922625958\n[STDOUT RAW] out_time_ms=2922625958\n[STDOUT RAW] out_time=00:48:42.625958\n[STDOUT RAW] dup_frames=0\n[STDOUT RAW] drop_frames=0\n[STDOUT RAW] speed= 177x\n[STDOUT RAW] progress=continue\n[STDERR RAW] size=   45568KiB time=00:48:42.62 bitrate= 127.7kbits/s speed= 177x\n[STDOUT RAW] bitrate= 127.5kbits/s\n[STDOUT RAW] total_size=48234496\n[STDOUT RAW] out_time_us=3026233958\n[STDOUT RAW] out_time_ms=3026233958\n[STDOUT RAW] out_time=00:50:26.233958\n[STDOUT RAW] dup_frames=0\n[STDOUT RAW] drop_frames=0\n[STDOUT RAW] speed= 178x\n[STDOUT RAW] progress=continue\n[STDERR RAW] size=   47104KiB time=00:50:26.23 bitrate= 127.5kbits/s speed= 178x\n[STDOUT RAW] bitrate= 127.3kbits/s\n[STDOUT RAW] total_size=49807360\n[STDOUT RAW] out_time_us=3129481958\n[STDOUT RAW] out_time_ms=3129481958\n[STDOUT RAW] out_time=00:52:09.481958\n[STDOUT RAW] dup_frames=0\n[STDOUT RAW] drop_frames=0\n[STDOUT RAW] speed= 178x\n[STDOUT RAW] progress=continue\n[STDERR RAW] size=   48640KiB time=00:52:09.48 bitrate= 127.3kbits/s speed= 178x\n[STDOUT RAW] bitrate= 127.8kbits/s\n[STDOUT RAW] total_size=51642368\n[STDOUT RAW] out_time_us=3233161958\n[STDOUT RAW] out_time_ms=3233161958\n[STDOUT RAW] out_time=00:53:53.161958\n[STDOUT RAW] dup_frames=0\n[STDOUT RAW] drop_frames=0\n[STDOUT RAW] speed= 179x\n[STDOUT RAW] progress=continue\n[STDERR RAW] size=   50432KiB time=00:53:53.16 bitrate= 127.8kbits/s speed= 179x\n[STDOUT RAW] bitrate= 127.5kbits/s\n[STDOUT RAW] total_size=53215232\n[STDOUT RAW] out_time_us=3337801958\n[STDOUT RAW] out_time_ms=3337801958\n[STDOUT RAW] out_time=00:55:37.801958\n[STDOUT RAW] dup_frames=0\n[STDOUT RAW] drop_frames=0\n[STDOUT RAW] speed= 180x\n[STDOUT RAW] progress=continue\n[STDERR RAW] size=   51968KiB time=00:55:37.80 bitrate= 127.5kbits/s speed= 180x\n[STDOUT RAW] bitrate= 127.4kbits/s\n[STDOUT RAW] total_size=54788096\n[STDOUT RAW] out_time_us=3440761958\n[STDOUT RAW] out_time_ms=3440761958\n[STDOUT RAW] out_time=00:57:20.761958\n[STDOUT RAW] dup_frames=0\n[STDOUT RAW] drop_frames=0\n[STDOUT RAW] speed= 180x\n[STDOUT RAW] progress=continue\n[STDERR RAW] size=   53504KiB time=00:57:20.76 bitrate= 127.4kbits/s speed= 180x\n[STDOUT RAW] bitrate= 127.4kbits/s\n[STDOUT RAW] total_size=56360960\n[STDOUT RAW] out_time_us=3539065958\n[STDOUT RAW] out_time_ms=3539065958\n[STDOUT RAW] out_time=00:58:59.065958\n[STDOUT RAW] dup_frames=0\n[STDOUT RAW] drop_frames=0\n[STDOUT RAW] speed= 180x\n[STDOUT RAW] progress=continue\n[STDERR RAW] size=   55040KiB time=00:58:59.06 bitrate= 127.4kbits/s speed= 180x\n[STDOUT RAW] bitrate= 128.0kbits/s\n[STDOUT RAW] total_size=57517868\n[STDOUT RAW] out_time_us=3594774667\n[STDERR RAW] size=   56170KiB time=00:59:54.77 bitrate= 128.0kbits/s speed= 181x\n[STDOUT RAW] out_time_ms=3594774667\n[STDOUT RAW] out_time=00:59:54.774667\n[STDOUT RAW] dup_frames=0\n[STDOUT RAW] drop_frames=0\n[STDOUT RAW] speed= 181x\n[STDOUT RAW] progress=end\n[ConversionWorker] STDERR pipe closed signal received.\n[ConversionWorker] Detected 'progress=end' for 高冷14.wav\n[ConversionWorker] STDOUT pipe closed signal received.\n[ConversionWorker] Process finished and both stream pipes closed. Exiting loop.\n[ConversionWorker] Waiting for reader threads to join...\n[ConversionWorker] FFmpeg process ended. Return code: 0\n[ConversionWorker] Closing FFmpeg log file.\n